<?xml version="1.0" standalone="no"?><!DOCTYPE svg PUBLIC "-//W3C//DTD SVG 1.1//EN" "http://www.w3.org/Graphics/SVG/1.1/DTD/svg11.dtd"><svg class="icon" width="200px" height="200.00px" viewBox="0 0 1024 1024" version="1.1" xmlns="http://www.w3.org/2000/svg"><path d="M704 320m-64 0a64 64 0 1 0 128 0 64 64 0 1 0-128 0ZM832 864H64a32 32 0 0 1-32-32V192a32 32 0 0 1 32-32h768a32 32 0 0 1 32 32v140.16l81.92-40.96a32.64 32.64 0 0 1 30.72 0 33.28 33.28 0 0 1 15.36 28.8v384a33.28 33.28 0 0 1-15.36 27.52 32.64 32.64 0 0 1-30.72 0l-81.92-40.96V832a32 32 0 0 1-32 32z m-736-64h704V640a33.28 33.28 0 0 1 15.36-27.52 32.64 32.64 0 0 1 30.72 0l81.92 40.96v-281.6l-81.92 40.96a32.64 32.64 0 0 1-30.72 0A33.28 33.28 0 0 1 800 384V224h-704zM384 672a33.92 33.92 0 0 1-15.36-3.84 32.64 32.64 0 0 1-16.64-28.16V384a32 32 0 0 1 49.92-26.88l192 128a32.64 32.64 0 0 1 0 53.76l-192 128a36.48 36.48 0 0 1-17.92 5.12z m32-228.48v136.96L518.4 512z" /></svg>